PathFileType	4	(X/Y/Z)	D:\TRACE\v60_Jaco2_6-2-23\BothDRS_Motion1_9-v60.trc
DataRate	CameraRate	NumFrames	NumMarkers	Units	OrigDataRate	OrigDataStartFrame	OrigNumFrames
100.00	100.00	      34	9	mm	100.00	6563	      7500
Frame#	Time	front left toe			Front right toe			aft left toe			aft right toe			Arm			FL body			FR body			AL Body			AR Body			
		X1	Y1	Z1	X2	Y2	Z2	X3	Y3	Z3	X4	Y4	Z4	X5	Y5	Z5	X6	Y6	Z6	X7	Y7	Z7	X8	Y8	Z8	X9	Y9	Z9	

6563	65.620	-214.86021	43.61281	-290.52689	155.45651	6.77622	-337.28247	-182.77649	19.47784	310.43527	201.61288	56.03879	308.64993	31.17600	1104.59436	-716.91284	-118.07980	565.27087	-450.33853	42.06950	562.02979	-462.66000	-45.46895	583.59015	492.46280	114.83212	575.63379	482.81998	
6564	65.630	-215.05450	35.39941	-289.66217	155.55287	6.77278	-337.16550	-182.83311	19.31407	310.42313	202.05917	47.80543	309.45004	31.77386	1104.65332	-715.88257	-117.02782	564.84406	-449.49597	42.31079	562.15430	-462.29678	-45.82561	583.35046	492.95560	108.96863	573.50684	481.25677	
6565	65.640	-214.89954	27.49498	-289.11203	155.67828	6.79323	-337.14740	-182.61224	19.10229	310.59668	202.53578	40.39312	310.00375	32.57477	1104.71594	-715.13635	-117.17874	565.24811	-449.44040	43.18421	562.27380	-461.25845	-45.74013	582.66498	493.83777	108.66353	573.14838	482.02368	
6566	65.650	-214.61685	21.04367	-288.61710	155.76926	6.79194	-337.04767	-182.28450	18.90388	310.61771	202.60149	33.58006	310.38947	33.28386	1104.87817	-714.05267	-116.27416	565.18646	-448.76892	43.57715	562.35382	-460.75363	-45.61307	582.18567	494.42746	112.12693	574.15936	484.99258	
6567	65.660	-214.45863	15.06995	-288.72241	155.85841	6.79856	-336.98373	-182.09329	18.81640	310.71091	202.26459	27.25346	310.63223	33.80327	1105.37036	-713.10339	-115.28200	565.20264	-447.81302	43.89980	562.39673	-459.87769	-45.48122	581.93127	494.80585	112.12939	574.38818	486.82990	
6568	65.670	-214.31700	13.04663	-289.89554	155.80914	6.70359	-336.88751	-182.03082	18.65719	310.75989	202.81735	27.13128	308.19073	34.42130	1105.85864	-711.91595	-115.03751	565.28973	-447.46744	44.30301	562.22467	-458.77176	-45.94333	581.47241	495.32480	112.16349	573.86926	487.71567	
6569	65.680	-215.05574	10.27659	-290.80789	155.77522	6.61473	-336.75888	-181.50191	18.50232	310.87473	203.10922	23.86099	309.65012	34.95150	1106.30981	-710.96875	-114.20641	565.63062	-446.81583	45.13197	562.77148	-458.45074	-46.01777	581.89844	496.24661	111.69222	574.22845	488.32648	
6570	65.690	-215.42586	11.00207	-289.84946	155.44824	6.83213	-336.70361	-180.91252	18.58863	310.96219	203.66571	25.69403	308.27115	35.99457	1106.79639	-710.33722	-113.84561	566.37415	-446.33066	45.89458	563.40387	-457.75558	-46.36928	582.80042	497.01492	111.09417	574.64325	488.16171	
6571	65.700	-215.15622	10.35889	-289.65851	155.87819	9.88700	-336.87659	-181.70329	22.02658	309.80585	203.39037	24.00541	310.20325	36.99136	1107.56433	-710.15491	-113.27603	567.69977	-445.63681	46.95937	564.36841	-456.52490	-46.83521	583.46741	497.87247	111.05493	576.02441	490.04016	
6572	65.710	-214.84830	11.02437	-289.45438	153.56117	13.68885	-333.79938	-178.09967	24.54454	310.93506	203.24654	23.96181	309.86804	38.23754	1107.91699	-709.52570	-112.01009	568.92688	-445.31259	48.00232	565.63556	-456.34058	-47.26435	583.48322	498.21088	111.03564	576.22650	490.84164	
6573	65.720	-214.83391	11.16301	-290.57800	151.19125	17.87799	-330.30835	-174.50499	27.82528	314.53241	203.08919	23.95623	309.00638	39.67130	1108.98804	-708.25397	-111.05212	569.41309	-444.98727	48.79829	566.36719	-456.11630	-47.49133	583.51764	498.54764	110.60441	576.31250	491.35019	
6574	65.730	-214.74870	10.55180	-289.84827	149.28410	26.95939	-329.02945	-170.65329	36.90009	314.21973	203.41641	23.91743	310.24567	41.20324	1110.51184	-707.02905	-110.90687	569.83746	-444.86496	49.81878	566.55017	-455.80533	-47.47800	583.59216	498.78311	110.35754	576.28528	491.64758	
6575	65.740	-214.84206	10.32583	-289.98318	149.16170	36.10146	-327.73044	-168.23672	45.33352	314.51157	203.26384	23.93398	309.77039	42.89515	1111.88293	-705.86768	-110.37170	570.04132	-444.58704	50.11172	566.43909	-455.29288	-47.41142	583.52496	499.28238	110.70708	576.21106	492.56769	
6576	65.750	-214.91541	10.36749	-289.88754	149.66151	47.39983	-328.20709	-169.94325	57.47781	313.21542	203.54218	23.79816	310.11380	44.66624	1112.49341	-704.98206	-109.36948	569.55872	-444.03369	50.54844	566.36981	-454.78879	-47.29921	582.86688	499.81329	110.94473	575.87097	492.91183	
6577	65.760	-214.87961	10.45431	-289.85684	152.10770	59.11041	-328.63269	-172.78432	69.12772	312.57175	203.70689	23.54397	310.15176	45.37451	1112.36304	-704.35626	-109.32114	569.63239	-443.69891	51.11071	566.44208	-454.37067	-47.12637	582.08521	500.05179	111.21764	574.94989	493.44186	
6578	65.770	-214.83444	10.32537	-289.83673	154.84988	71.21187	-328.87927	-174.87840	79.50271	313.02576	203.87770	23.31494	310.26266	45.80934	1111.55603	-703.69141	-108.51806	569.73773	-443.15204	51.34433	566.37354	-454.02225	-46.84290	580.84241	500.71317	111.34096	573.89215	493.68005	
6579	65.780	-214.84009	10.15479	-289.86307	156.93993	82.71775	-328.83670	-176.08963	91.38943	312.60736	203.97099	23.10641	310.27405	46.11411	1110.59888	-702.89001	-108.02901	569.51733	-442.67838	51.57520	566.16132	-453.55328	-46.80728	579.97675	501.05585	111.66209	572.65240	494.14685	
6580	65.790	-214.91580	9.90537	-289.74600	159.39983	93.79239	-327.89920	-176.84290	101.98228	313.21255	204.08490	23.06779	310.31674	46.19504	1110.35352	-702.50812	-107.93303	569.33282	-442.32104	52.27373	565.58984	-452.85519	-46.18465	579.22919	501.34753	114.44592	571.21686	493.31824	
6581	65.800	-214.94745	9.83600	-289.72629	160.47704	104.40695	-327.01263	-176.74631	112.19529	314.15015	204.36108	23.03481	310.43137	46.53355	1110.33057	-702.13434	-106.91113	568.87268	-441.57806	52.63760	565.16254	-452.52277	-45.74551	578.76825	501.72824	114.53328	570.44867	493.83301	
6582	65.810	-214.89882	10.09856	-289.70081	161.71164	113.86224	-325.96292	-176.68686	122.49529	314.84232	204.51965	22.91737	310.44958	47.36364	1110.31238	-701.33777	-107.40629	569.01953	-441.78943	53.15010	564.67480	-452.19116	-45.57706	578.50861	502.23538	112.62705	570.90753	495.56586	
6583	65.820	-214.89882	10.28345	-289.62344	163.13411	122.61917	-324.59219	-175.67561	130.78224	316.28772	204.63948	22.94255	310.64810	48.02204	1110.05884	-700.93549	-106.56300	568.56006	-441.09119	53.32966	564.30389	-451.42957	-45.07883	578.36377	502.78214	113.10826	570.70160	496.00513	
6584	65.830	-214.84752	10.22882	-289.58624	164.30986	129.36563	-323.23239	-174.75940	137.39395	317.34833	204.64954	22.86516	310.71921	49.16328	1109.40503	-700.78052	-105.63512	567.87445	-440.23895	53.84060	563.92761	-450.81793	-44.26547	578.26880	503.28458	113.60052	570.20898	496.70349	
6585	65.840	-214.83672	10.08901	-289.50565	166.13760	133.91420	-321.93109	-174.34108	142.56171	318.43472	204.76077	22.59764	310.78397	50.75663	1108.49365	-700.07184	-105.18536	567.79785	-439.69540	53.88364	563.74762	-450.41806	-44.25974	578.00232	503.64087	110.21233	567.51428	493.65356	
6586	65.850	-214.72491	10.04382	-289.44711	168.38319	136.01193	-320.17346	-175.33501	145.46617	320.10092	205.04048	22.45427	310.82346	51.49797	1107.92651	-699.93823	-105.48207	567.68085	-439.50848	54.25719	563.46411	-449.78622	-43.57875	577.63898	504.36441	110.84927	567.44006	494.15616	
6587	65.860	-214.73026	10.22715	-289.35477	170.32249	135.51003	-317.86005	-175.28647	145.79073	321.62781	205.02460	22.44618	310.91397	52.61582	1107.72498	-699.30145	-104.48647	567.63629	-438.65100	54.73189	563.20166	-449.12888	-42.88160	577.88275	504.96536	115.12563	568.89648	496.82965	
6588	65.870	-214.64264	10.64261	-289.37979	171.65627	132.21632	-315.83694	-175.53125	143.92061	323.70016	205.24094	22.44472	310.95309	53.36166	1107.80029	-698.84869	-104.82262	567.93549	-438.51093	55.14465	563.20160	-448.72525	-42.19365	578.10400	505.38095	115.78573	568.98798	497.20679	
6589	65.880	-214.48962	10.72019	-289.35312	172.36876	127.60110	-313.60309	-175.22546	140.53279	325.70459	205.42798	22.45531	311.06747	53.86702	1107.96802	-698.50250	-104.67233	568.16632	-438.21307	55.76421	563.09900	-448.39667	-41.79130	578.23401	505.71924	112.93882	567.23438	494.54489	
6590	65.890	-214.25829	10.63058	-289.29636	173.09361	121.92891	-311.82126	-174.58920	136.50838	327.96780	205.50151	22.43233	311.07184	54.65225	1107.94226	-698.07550	-103.64245	568.12079	-437.30142	56.82786	563.04169	-448.30194	-41.08611	578.45874	506.12045	113.15401	567.02344	494.72858	
6591	65.900	-214.04414	10.55924	-289.14478	173.71448	115.55445	-309.85287	-173.65854	131.18565	330.66049	205.54839	22.36564	311.11392	55.34599	1107.60388	-697.83704	-102.98959	567.75714	-436.97495	56.72930	562.79352	-447.46078	-40.69542	578.64410	506.63046	117.19633	569.72778	500.01636	
6592	65.910	-213.90996	10.66247	-289.05750	175.22375	108.74610	-308.31271	-173.90312	125.74120	332.75598	205.62779	22.30275	311.18570	56.38158	1107.21362	-697.44849	-102.63526	567.79254	-436.83664	57.28137	562.64404	-446.98816	-40.02852	578.63367	507.18832	117.87405	569.63025	500.34399	
6593	65.920	-213.86230	10.81100	-289.07877	177.28705	101.55502	-306.90216	-172.06638	117.47330	335.16852	205.68491	22.19760	311.18576	57.51112	1107.24268	-697.10724	-102.03768	567.87518	-436.33997	57.65593	562.49115	-446.68982	-39.20619	578.56195	507.51056	115.09429	566.91229	496.04755	
6594	65.930	-213.79994	10.93639	-289.08429	179.43939	93.47964	-305.76572	-170.95889	109.05068	337.31625	205.73471	22.07425	311.15329	58.19817	1107.09863	-697.08496	-101.68037	567.75281	-436.01791	57.88478	562.32623	-446.48019	-38.51806	578.53204	507.80087	115.71925	567.13794	496.38696	
6595	65.940	-213.68147	10.86400	-289.07916	181.89026	85.56673	-304.66730	-170.50189	100.28385	338.95959	205.74368	21.93311	311.07312	58.89360	1106.77246	-697.00470	-100.97420	567.46552	-435.53171	58.54700	561.95728	-446.07602	-38.03664	578.58771	508.44086	121.51540	568.74719	500.05365	
6596	65.950	-213.57457	10.77914	-288.98389	183.44215	76.94969	-303.76248	-169.00676	90.38141	340.51233	205.80598	21.81439	311.01544	59.86113	1106.18567	-696.56561	-100.90838	567.15778	-435.40231	59.15534	561.60944	-445.69699	-37.41708	578.55499	508.66895	122.73727	568.76709	500.31796	
